<svg width="24" height="24" viewBox="0 0 24 24" fill="none" xmlns="http://www.w3.org/2000/svg">
<path d="M10 14V16C8.4087 16 6.88258 16.6321 5.75736 17.7574C4.63214 18.8826 4 20.4087 4 22H2C2 19.8783 2.84285 17.8434 4.34315 16.3431C5.84344 14.8429 7.87827 14 10 14ZM10 13C6.685 13 4 10.315 4 7C4 3.685 6.685 1 10 1C13.315 1 16 3.685 16 7C16 10.315 13.315 13 10 13ZM10 11C12.21 11 14 9.21 14 7C14 4.79 12.21 3 10 3C7.79 3 6 4.79 6 7C6 9.21 7.79 11 10 11ZM16 21.5L13.061 23.045L13.622 19.773L11.245 17.455L14.531 16.977L16 14L17.47 16.977L20.755 17.455L18.378 19.773L18.938 23.045L16 21.5Z" fill="#6A6A9F"/>
</svg>
